<?xml version="1.0" encoding="utf-8"?>
<!-- Generator: Adobe Illustrator 19.1.0, SVG Export Plug-In . SVG Version: 6.00 Build 0)  -->
<!DOCTYPE svg PUBLIC "-//W3C//DTD SVG 1.1//EN" "http://www.w3.org/Graphics/SVG/1.1/DTD/svg11.dtd">
<svg version="1.1" id="Layer_1" xmlns="http://www.w3.org/2000/svg" xmlns:xlink="http://www.w3.org/1999/xlink" x="0px" y="0px"
	 viewBox="0 0 128 128" style="enable-background:new 0 0 128 128;" xml:space="preserve">
<style type="text/css">
	.Drop_x0020_Shadow{fill:none;}
	.Outer_x0020_Glow_x0020_5_x0020_pt{fill:none;}
	.Blue_x0020_Neon{fill:none;stroke:#8AACDA;stroke-width:7;stroke-linecap:round;stroke-linejoin:round;}
	.Chrome_x0020_Highlight{fill:url(#SVGID_1_);stroke:#FFFFFF;stroke-width:0.3629;stroke-miterlimit:1;}
	.Jive_GS{fill:#FFDD00;}
	.Alyssa_GS{fill:#A6D0E4;}
	.st0{fill:#00A592;}
	.st1{fill:#09B9A5;}
	.st2{fill:#00897A;}
	.st3{fill:#FEFEFE;}
</style>
<linearGradient id="SVGID_1_" gradientUnits="userSpaceOnUse" x1="-86" y1="-86" x2="-86" y2="-87">
	<stop  offset="0" style="stop-color:#656565"/>
	<stop  offset="0.618" style="stop-color:#1B1B1B"/>
	<stop  offset="0.6292" style="stop-color:#545454"/>
	<stop  offset="0.9831" style="stop-color:#3E3E3E"/>
</linearGradient>
<rect y="11.1" class="st0" width="128" height="116.9"/>
<rect class="st1" width="128" height="11.2"/>
<path class="st2" d="M113.4,44.4l-12.2-12.2c-1.3-1.3-3.5-1.3-4.8,0L53.1,75.5L32.9,55.3c-1.3-1.3-3.5-1.3-4.8,0L15.9,67.4
	c-1.3,1.3-1.3,3.5,0,4.8l34.8,34.9c1.3,1.3,3.5,1.3,4.8,0l57.9-57.9C114.8,47.9,114.8,45.7,113.4,44.4z"/>
<path class="st3" d="M113.4,40.5l-12.2-12.2c-1.3-1.3-3.5-1.3-4.8,0L53.1,71.7L32.9,51.4c-1.3-1.3-3.5-1.3-4.8,0L15.9,63.6
	c-1.3,1.3-1.3,3.5,0,4.8l34.8,34.9c1.3,1.3,3.5,1.3,4.8,0l57.9-57.9C114.8,44.1,114.8,41.9,113.4,40.5z"/>
</svg>
